<svg width="926" height="165" viewBox="0 0 926 165" fill="none" xmlns="http://www.w3.org/2000/svg">
<path fill-rule="evenodd" clip-rule="evenodd" d="M879.23 13.6113C911.193 14.7786 924.513 13.1472 924.513 0V56.3634C924.513 56.7269 924.333 57.0175 924.076 57.1902C924.364 59.3594 924.512 61.5725 924.512 63.8203V114C924.512 141.614 902.126 164 874.512 164H51C23.3858 164 1 141.614 1 114V63.8203C1 36.2061 23.3858 13.8203 51 13.8203H874.512C875.827 13.8203 877.13 13.8711 878.42 13.9708C878.605 13.747 878.887 13.5987 879.23 13.6113Z" fill="white" fill-opacity="0.78"/>
<path d="M879.23 13.6113L879.194 14.6106L879.23 13.6113ZM924.076 57.1902L923.518 56.3609L923.004 56.7071L923.085 57.3215L924.076 57.1902ZM878.42 13.9708L878.343 14.9678L878.861 15.0078L879.191 14.6073L878.42 13.9708ZM923.513 0C923.513 3.11003 922.73 5.41981 921.182 7.1762C919.616 8.95285 917.166 10.2799 913.606 11.2058C906.448 13.0677 895.278 13.1967 879.267 12.612L879.194 14.6106C895.145 15.1932 906.617 15.0901 914.109 13.1414C917.875 12.162 920.752 10.689 922.683 8.49859C924.631 6.28791 925.513 3.46356 925.513 0H923.513ZM925.513 56.3634V0H923.513V56.3634H925.513ZM924.635 58.0196C925.148 57.6741 925.513 57.0824 925.513 56.3634H923.513C923.513 56.3711 923.512 56.3735 923.513 56.372C923.513 56.3706 923.514 56.368 923.515 56.3651C923.519 56.3593 923.521 56.3588 923.518 56.3609L924.635 58.0196ZM923.085 57.3215C923.367 59.4473 923.512 61.6166 923.512 63.8203H925.512C925.512 61.5285 925.361 59.2715 925.068 57.0589L923.085 57.3215ZM923.512 63.8203V114H925.512V63.8203H923.512ZM923.512 114C923.512 141.062 901.574 163 874.512 163V165C902.679 165 925.512 142.167 925.512 114H923.512ZM874.512 163H51V165H874.512V163ZM51 163C23.9381 163 2 141.062 2 114H0C0 142.167 22.8335 165 51 165V163ZM2 114V63.8203H0V114H2ZM2 63.8203C2 36.7584 23.938 14.8203 51 14.8203V12.8203C22.8335 12.8203 0 35.6538 0 63.8203H2ZM51 14.8203H874.512V12.8203H51V14.8203ZM874.512 14.8203C875.802 14.8203 877.079 14.8701 878.343 14.9678L878.497 12.9737C877.182 12.8721 875.853 12.8203 874.512 12.8203V14.8203ZM879.267 12.612C878.594 12.5874 878.019 12.8852 877.649 13.3342L879.191 14.6073C879.193 14.6047 879.192 14.6068 879.187 14.6093C879.184 14.6105 879.182 14.611 879.182 14.611C879.182 14.6111 879.185 14.6103 879.194 14.6106L879.267 12.612Z" fill="#00D1B2"/>
</svg>
