<svg width="66" height="47" viewBox="0 0 66 47" fill="none" xmlns="http://www.w3.org/2000/svg">
<path d="M48.5223 26.6181C44.7794 26.7112 41.7097 25.7073 39.3133 23.6062C36.9158 21.4572 35.6763 18.4392 35.5949 14.552C35.5145 10.7129 36.7198 7.51391 39.2108 4.95517C41.7497 2.39524 45.3945 1.05616 50.145 0.93795C54.8955 0.819736 58.5756 2.31264 61.1851 5.41666C63.8416 8.4715 65.2221 12.4944 65.3266 17.4853C65.4251 22.1882 64.3124 26.3692 61.9885 30.0281C59.7116 33.6378 56.8233 36.7106 53.3236 39.2464C49.872 41.7811 46.4577 43.8106 43.0809 45.3351L40.0047 39.4338C42.193 38.4671 44.4221 37.1632 46.6923 35.5223C49.0104 33.8801 50.9416 32.1035 52.4859 30.1925C54.0292 28.2336 54.8053 26.3177 54.8141 24.4449C54.6282 24.7376 53.9889 25.1616 52.8963 25.717C51.8037 26.2723 50.3457 26.5727 48.5223 26.6181ZM13.6131 27.4868C9.87022 27.5799 6.80055 26.576 4.40406 24.4749C2.00656 22.3259 0.767119 19.3079 0.685726 15.4207C0.605337 11.5815 1.83461 8.382 4.37356 5.82207C6.91251 3.26214 10.5333 1.92366 15.2358 1.80664C20.0343 1.68723 23.7383 3.17954 26.3479 6.28356C29.0044 9.3384 30.3849 13.3613 30.4894 18.3522C30.5879 23.0551 29.4752 27.2361 27.1513 30.895C24.8264 34.5059 21.9381 37.5787 18.4864 40.1133C15.0348 42.648 11.6205 44.6775 8.24372 46.202L5.16753 40.3007C7.35576 39.334 9.58493 38.0301 11.8551 36.3892C14.1252 34.7482 16.0324 32.9722 17.5767 31.0612C19.168 29.1011 19.9681 27.1846 19.9769 25.3118C19.791 25.6045 19.1277 26.0291 17.9871 26.5857C16.8945 27.141 15.4365 27.4414 13.6131 27.4868Z" fill="#00D1B2"/>
</svg>
