<svg width="82" height="76" viewBox="0 0 82 76" fill="none" xmlns="http://www.w3.org/2000/svg">
<path fill-rule="evenodd" clip-rule="evenodd" d="M38.209 0.00146484C17.2851 0.00146484 0.322998 16.9636 0.322998 37.8874C0.322998 58.8113 17.2851 75.7734 38.209 75.7734H46.4469C48.1675 75.7734 49.8623 75.6443 51.5212 75.3947H79.9788C81.1163 75.3947 82.0556 72.5016 81.2652 71.6836C79.161 69.5062 76.6604 66.2857 73.9512 61.7302C76.8402 57.7423 78.8942 53.0786 79.8345 47.9711L80.2381 45.7785C81.0145 41.5609 81.0442 37.2396 80.3257 33.0117L80.2515 32.575C77.055 13.764 60.7566 0.00146484 41.6759 0.00146484H38.209Z" fill="white"/>
<line x1="27.8486" y1="22.0063" x2="54.6406" y2="22.0063" stroke="#B1B1B1" stroke-width="6"/>
<line x1="27.8486" y1="48.5259" x2="54.6406" y2="48.5259" stroke="#B1B1B1" stroke-width="6"/>
<line x1="27.8486" y1="34.8867" x2="54.6406" y2="34.8867" stroke="#B1B1B1" stroke-width="6"/>
</svg>
