<svg width="44" height="16" viewBox="0 0 44 16" fill="none" xmlns="http://www.w3.org/2000/svg">
<path d="M42.2306 3.55554C36.3683 3.55554 18.3681 3.55554 10.1008 3.55554M2.20923 12.4444H34.339" stroke="#00D1B2" stroke-width="3"/>
<path d="M11.2147 3.55556C11.2147 4.06576 10.8791 4.68129 10.012 5.22053C9.15969 5.7506 7.91964 6.11111 6.49736 6.11111C5.07508 6.11111 3.83504 5.7506 2.9827 5.22053C2.1156 4.68129 1.78003 4.06576 1.78003 3.55556C1.78003 3.04535 2.1156 2.42982 2.9827 1.89058C3.83504 1.36052 5.07508 1 6.49736 1C7.91964 1 9.15969 1.36052 10.012 1.89058C10.8791 2.42982 11.2147 3.04535 11.2147 3.55556Z" stroke="#00D1B2" stroke-width="2"/>
<path d="M42.66 12.4444C42.66 12.9546 42.3244 13.5701 41.4573 14.1094C40.605 14.6395 39.365 15 37.9427 15C36.5204 15 35.2804 14.6395 34.428 14.1094C33.5609 13.5701 33.2253 12.9546 33.2253 12.4444C33.2253 11.9342 33.5609 11.3187 34.428 10.7794C35.2804 10.2494 36.5204 9.88885 37.9427 9.88885C39.365 9.88885 40.605 10.2494 41.4573 10.7794C42.3244 11.3187 42.66 11.9342 42.66 12.4444Z" stroke="#00D1B2" stroke-width="2"/>
</svg>
