<svg width="33" height="17" viewBox="0 0 33 17" fill="none" xmlns="http://www.w3.org/2000/svg">
<path d="M31.907 4.42731C27.5321 4.42731 14.0991 4.42731 7.92949 4.42731M2.04028 13.3162H26.0177" stroke="#FCFCFC" stroke-width="3"/>
<path d="M8.50697 4.42732C8.50697 5.67574 7.22289 6.98288 5.2403 6.98288C3.25771 6.98288 1.97363 5.67574 1.97363 4.42732C1.97363 3.1789 3.25771 1.87177 5.2403 1.87177C7.22289 1.87177 8.50697 3.1789 8.50697 4.42732Z" stroke="white" stroke-width="2"/>
<path d="M31.9738 13.3162C31.9738 14.5646 30.6897 15.8717 28.7071 15.8717C26.7245 15.8717 25.4404 14.5646 25.4404 13.3162C25.4404 12.0678 26.7245 10.7606 28.7071 10.7606C30.6897 10.7606 31.9738 12.0678 31.9738 13.3162Z" stroke="white" stroke-width="2"/>
</svg>
