<svg width="67" height="46" viewBox="0 0 67 46" fill="none" xmlns="http://www.w3.org/2000/svg">
<path d="M18.139 19.8491C21.8818 19.756 24.952 20.7839 27.3495 22.9329C29.746 25.0339 30.9844 28.004 31.0648 31.8432C31.1462 35.7303 29.9174 38.9539 27.3785 41.5138C24.8396 44.0737 21.1948 45.4128 16.4443 45.531C11.6938 45.6492 7.99023 44.1809 5.33372 41.1261C2.72418 38.0221 1.36717 33.9746 1.26266 28.9837C1.16318 24.2327 2.25189 20.0524 4.52881 16.4427C6.8537 12.8317 9.74199 9.75896 13.1937 7.22433C16.6923 4.64051 20.13 2.58637 23.5068 1.06191L26.583 6.96316C24.3948 7.92989 22.1416 9.23434 19.8235 10.8765C17.5534 12.5175 15.6467 14.3174 14.1034 16.2764C12.559 18.1874 11.7825 20.0793 11.7737 21.9521C11.9606 21.7074 12.6004 21.3073 13.693 20.752C14.8335 20.1954 16.3156 19.8945 18.139 19.8491ZM53.0482 18.9804C56.791 18.8873 59.8612 19.9152 62.2587 22.0642C64.6552 24.1652 65.8936 27.1353 65.974 30.9745C66.0554 34.8616 64.8266 38.0852 62.2877 40.6451C59.7487 43.205 56.104 44.5441 51.3535 44.6623C46.603 44.7805 42.8994 43.3122 40.2429 40.2574C37.6334 37.1534 36.2764 33.1059 36.1719 28.115C36.0724 23.364 37.1611 19.1837 39.438 15.574C41.7629 11.963 44.6512 8.89027 48.1029 6.35564C51.6015 3.77182 55.0392 1.71768 58.416 0.193219L61.4922 6.09447C59.304 7.0612 57.0508 8.36565 54.7327 10.0078C52.4626 11.6488 50.5559 13.4488 49.0125 15.4077C47.4682 17.3187 46.6917 19.2106 46.6829 21.0834C46.8698 20.8387 47.5095 20.4386 48.6022 19.8833C49.7427 19.3268 51.2248 19.0258 53.0482 18.9804Z" fill="#00D1B2"/>
</svg>
